<svg width="49" height="40" viewBox="0 0 49 40" fill="none" xmlns="http://www.w3.org/2000/svg">
<path d="M28.0067 39.6913C27.9077 39.5935 27.8291 39.4775 27.7755 39.3497C27.7219 39.2219 27.6943 39.0849 27.6943 38.9466C27.6943 38.8083 27.7219 38.6713 27.7755 38.5435C27.8291 38.4157 27.9077 38.2996 28.0067 38.2019L45.3615 21.0525L1.0652 21.0525C0.782691 21.0525 0.511752 20.9416 0.311988 20.7442C0.112224 20.5468 -8.86425e-07 20.279 -8.74223e-07 19.9999C-8.6202e-07 19.7207 0.112224 19.453 0.311988 19.2556C0.511752 19.0582 0.782691 18.9473 1.0652 18.9473L45.3615 18.9473L28.0068 1.79789C27.9078 1.70009 27.8293 1.58399 27.7757 1.45621C27.7222 1.32844 27.6946 1.19148 27.6946 1.05318C27.6946 0.914873 27.7222 0.777922 27.7757 0.650144C27.8293 0.522366 27.9078 0.406265 28.0068 0.308468C28.1057 0.210671 28.2232 0.133094 28.3525 0.0801672C28.4818 0.0272399 28.6204 -8.9082e-07 28.7604 -8.84702e-07C28.9003 -8.78584e-07 29.0389 0.0272399 29.1682 0.0801672C29.2975 0.133094 29.415 0.210671 29.514 0.308468L48.6876 19.2552C48.7866 19.3529 48.8652 19.469 48.9188 19.5968C48.9724 19.7246 49 19.8616 49 19.9999C49 20.1382 48.9724 20.2752 48.9188 20.403C48.8652 20.5307 48.7866 20.6468 48.6876 20.7446L29.514 39.6913C29.4151 39.7892 29.2976 39.8668 29.1683 39.9198C29.039 39.9727 28.9004 40 28.7604 40C28.6204 40 28.4818 39.9727 28.3525 39.9198C28.2232 39.8668 28.1057 39.7892 28.0067 39.6913Z" fill="#F8F8F8"/>
</svg>
